<svg width="331" height="308" viewBox="0 0 331 308" fill="none" xmlns="http://www.w3.org/2000/svg">
<g clip-path="url(#clip0_17_6)">
<rect width="331" height="308" rx="16" fill="#D9D9D9"/>
<path d="M401.498 129H206.502C202.359 129 199 132.524 199 136.871V182.129C199 186.476 202.359 190 206.502 190H401.498C405.641 190 409 186.476 409 182.129V136.871C409 132.524 405.641 129 401.498 129Z" fill="#171717" stroke="#2E2E2E" stroke-width="0.981818"/>
<path d="M129.177 183H-48.1765C-51.945 183 -55 186.524 -55 190.871V236.129C-55 240.476 -51.945 244 -48.1765 244H129.177C132.945 244 136 240.476 136 236.129V190.871C136 186.524 132.945 183 129.177 183Z" fill="#171717" stroke="#2E2E2E" stroke-width="0.981818"/>
<path d="M123.498 68H-71.4978C-75.6411 68 -79 71.524 -79 75.871V121.129C-79 125.476 -75.6411 129 -71.4978 129H123.498C127.641 129 131 125.476 131 121.129V75.871C131 71.524 127.641 68 123.498 68Z" fill="#171717" stroke="#2E2E2E" stroke-width="0.981818"/>
<path d="M19.2247 99H17.5241L21.3452 88.3818H23.1961L27.0172 99H25.3166L22.3147 90.3105H22.2318L19.2247 99ZM19.5098 94.8419H25.0263V96.1899H19.5098V94.8419ZM28.5701 101.986V91.0364H30.0841V92.3273H30.2137C30.3036 92.1614 30.4332 91.9696 30.6025 91.7518C30.7719 91.5341 31.0069 91.344 31.3076 91.1815C31.6084 91.0156 32.0058 90.9327 32.5001 90.9327C33.143 90.9327 33.7168 91.0951 34.2214 91.42C34.7261 91.7449 35.1218 92.2133 35.4087 92.8251C35.6991 93.4369 35.8442 94.1731 35.8442 95.0337C35.8442 95.8944 35.7008 96.6323 35.4139 97.2476C35.127 97.8594 34.733 98.3312 34.2318 98.663C33.7306 98.9914 33.1586 99.1555 32.5157 99.1555C32.0318 99.1555 31.636 99.0743 31.3284 98.9119C31.0242 98.7494 30.7857 98.5593 30.6129 98.3415C30.4401 98.1238 30.307 97.9302 30.2137 97.7609H30.1204V101.986H28.5701ZM30.0893 95.0182C30.0893 95.5781 30.1705 96.0689 30.3329 96.4906C30.4954 96.9123 30.7304 97.2424 31.038 97.4809C31.3457 97.7159 31.7224 97.8335 32.1683 97.8335C32.6315 97.8335 33.0186 97.7107 33.3297 97.4653C33.6407 97.2165 33.8758 96.8795 34.0348 96.4543C34.1972 96.0292 34.2785 95.5505 34.2785 95.0182C34.2785 94.4928 34.199 94.021 34.04 93.6028C33.8844 93.1845 33.6494 92.8545 33.3348 92.6125C33.0238 92.3705 32.6349 92.2496 32.1683 92.2496C31.719 92.2496 31.3388 92.3654 31.0277 92.5969C30.7201 92.8285 30.4867 93.1517 30.3277 93.5665C30.1688 93.9812 30.0893 94.4652 30.0893 95.0182ZM40.0426 99.1763C39.538 99.1763 39.0817 99.083 38.6739 98.8963C38.266 98.7062 37.9428 98.4314 37.7043 98.0719C37.4693 97.7125 37.3518 97.2718 37.3518 96.7499C37.3518 96.3005 37.4382 95.9307 37.611 95.6403C37.7838 95.35 38.0172 95.1201 38.311 94.9508C38.6047 94.7814 38.9331 94.6535 39.296 94.5671C39.659 94.4807 40.0288 94.415 40.4056 94.3701C40.8825 94.3148 41.2697 94.2699 41.5669 94.2353C41.8642 94.1973 42.0802 94.1368 42.215 94.0538C42.3498 93.9709 42.4172 93.8361 42.4172 93.6494V93.6131C42.4172 93.1603 42.2893 92.8095 42.0335 92.5607C41.7812 92.3118 41.4045 92.1874 40.9033 92.1874C40.3814 92.1874 39.97 92.3031 39.6693 92.5347C39.3721 92.7629 39.1664 93.0169 39.0524 93.2969L37.5955 92.9651C37.7683 92.4812 38.0206 92.0906 38.3524 91.7933C38.6877 91.4926 39.0731 91.2749 39.5086 91.1401C39.9441 91.0018 40.4021 90.9327 40.8825 90.9327C41.2005 90.9327 41.5375 90.9707 41.8936 91.0467C42.253 91.1193 42.5883 91.2541 42.8994 91.4511C43.2139 91.6482 43.4714 91.9299 43.6719 92.2962C43.8724 92.6592 43.9726 93.131 43.9726 93.7116V99H42.4587V97.9112H42.3965C42.2962 98.1117 42.1459 98.3087 41.9454 98.5023C41.7449 98.6958 41.4874 98.8566 41.1729 98.9844C40.8583 99.1123 40.4816 99.1763 40.0426 99.1763ZM40.3796 97.932C40.8082 97.932 41.1746 97.8473 41.4788 97.6779C41.7864 97.5085 42.0197 97.2873 42.1787 97.0143C42.3412 96.7378 42.4224 96.4422 42.4224 96.1277V95.1011C42.3671 95.1564 42.2599 95.2083 42.1009 95.2567C41.9454 95.3016 41.7674 95.3414 41.5669 95.3759C41.3664 95.407 41.1712 95.4364 40.9811 95.4641C40.7909 95.4883 40.632 95.509 40.5041 95.5263C40.2034 95.5643 39.9286 95.6282 39.6797 95.7181C39.4343 95.808 39.2373 95.9376 39.0887 96.107C38.9435 96.2729 38.8709 96.4941 38.8709 96.7706C38.8709 97.1543 39.0126 97.4446 39.296 97.6416C39.5795 97.8352 39.9407 97.932 40.3796 97.932ZM46.1814 99V91.0364H47.6798V92.3014H47.7627C47.9079 91.8728 48.1637 91.5358 48.53 91.2904C48.8999 91.0415 49.3181 90.9171 49.7847 90.9171C49.8815 90.9171 49.9956 90.9206 50.1269 90.9275C50.2617 90.9344 50.3671 90.943 50.4432 90.9534V92.4362C50.381 92.4189 50.2704 92.3999 50.1114 92.3792C49.9524 92.355 49.7934 92.3429 49.6344 92.3429C49.268 92.3429 48.9414 92.4207 48.6545 92.5762C48.371 92.7283 48.1464 92.9409 47.9805 93.2139C47.8146 93.4835 47.7316 93.7911 47.7316 94.1368V99H46.1814ZM56.1166 91.0364V92.2807H51.7667V91.0364H56.1166ZM52.9332 89.1284H54.4835V96.6617C54.4835 96.9624 54.5284 97.1888 54.6183 97.3409C54.7081 97.4895 54.8239 97.5915 54.9656 97.6468C55.1108 97.6987 55.2681 97.7246 55.4374 97.7246C55.5619 97.7246 55.6707 97.7159 55.7641 97.6987C55.8574 97.6814 55.93 97.6675 55.9818 97.6572L56.2618 98.9378C56.1719 98.9723 56.044 99.0069 55.8781 99.0415C55.7122 99.0795 55.5048 99.1002 55.256 99.1037C54.8481 99.1106 54.4679 99.038 54.1153 98.8859C53.7628 98.7339 53.4776 98.4988 53.2599 98.1808C53.0421 97.8628 52.9332 97.4636 52.9332 96.9832V89.1284ZM57.9754 99V91.0364H59.4634V92.3325H59.5619C59.7279 91.8936 59.9992 91.5514 60.3759 91.306C60.7527 91.0571 61.2038 90.9327 61.7291 90.9327C62.2614 90.9327 62.7073 91.0571 63.0668 91.306C63.4297 91.5548 63.6976 91.897 63.8704 92.3325H63.9534C64.1435 91.9074 64.4459 91.5687 64.8607 91.3163C65.2754 91.0606 65.7697 90.9327 66.3435 90.9327C67.0659 90.9327 67.6552 91.1591 68.1115 91.6119C68.5712 92.0647 68.801 92.7473 68.801 93.6598V99H67.2508V93.805C67.2508 93.2658 67.1039 92.8752 66.8101 92.6332C66.5163 92.3913 66.1655 92.2703 65.7576 92.2703C65.253 92.2703 64.8607 92.4259 64.5807 92.7369C64.3007 93.0446 64.1607 93.4403 64.1607 93.9242V99H62.6157V93.7065C62.6157 93.2744 62.4809 92.927 62.2113 92.6643C61.9417 92.4017 61.5909 92.2703 61.1588 92.2703C60.865 92.2703 60.5937 92.3481 60.3448 92.5036C60.0994 92.6557 59.9007 92.8683 59.7486 93.1413C59.6 93.4144 59.5257 93.7307 59.5257 94.0901V99H57.9754ZM74.455 99.1607C73.6704 99.1607 72.9947 98.9931 72.4278 98.6578C71.8644 98.3191 71.4289 97.8438 71.1213 97.232C70.8171 96.6168 70.665 95.8961 70.665 95.07C70.665 94.2543 70.8171 93.5354 71.1213 92.9132C71.4289 92.2911 71.8575 91.8054 72.4071 91.4563C72.9601 91.1072 73.6065 90.9327 74.3461 90.9327C74.7955 90.9327 75.231 91.007 75.6527 91.1556C76.0744 91.3042 76.4528 91.5375 76.7881 91.8555C77.1234 92.1735 77.3878 92.5866 77.5814 93.0947C77.7749 93.5993 77.8717 94.2128 77.8717 94.9352V95.4848H71.5412V94.3234H76.3526C76.3526 93.9156 76.2696 93.5544 76.1037 93.2398C75.9378 92.9219 75.7045 92.6713 75.4038 92.4881C75.1065 92.3049 74.7574 92.2133 74.3565 92.2133C73.921 92.2133 73.5408 92.3204 73.2159 92.5347C72.8944 92.7456 72.6456 93.0221 72.4693 93.3643C72.2965 93.703 72.2101 94.0711 72.2101 94.4686V95.3759C72.2101 95.9082 72.3034 96.361 72.49 96.7343C72.6801 97.1076 72.9445 97.3928 73.2833 97.5898C73.622 97.7833 74.0178 97.8801 74.4706 97.8801C74.7644 97.8801 75.0322 97.8386 75.2742 97.7557C75.5161 97.6693 75.7253 97.5414 75.9015 97.372C76.0778 97.2027 76.2126 96.9935 76.3059 96.7447L77.7732 97.0091C77.6557 97.4411 77.4448 97.8196 77.1407 98.1445C76.84 98.466 76.4615 98.7166 76.0052 98.8963C75.5524 99.0726 75.0357 99.1607 74.455 99.1607ZM81.2859 94.2716V99H79.7357V91.0364H81.2237V92.3325H81.3222C81.5054 91.9108 81.7923 91.5721 82.1829 91.3163C82.5769 91.0606 83.0729 90.9327 83.6709 90.9327C84.2135 90.9327 84.6888 91.0467 85.0966 91.2749C85.5045 91.4995 85.8208 91.8348 86.0454 92.2807C86.2701 92.7266 86.3824 93.2779 86.3824 93.9346V99H84.8322V94.1212C84.8322 93.544 84.6819 93.0929 84.3812 92.768C84.0805 92.4397 83.6674 92.2755 83.142 92.2755C82.7826 92.2755 82.4628 92.3533 82.1829 92.5088C81.9064 92.6643 81.6869 92.8925 81.5244 93.1932C81.3654 93.4904 81.2859 93.8499 81.2859 94.2716ZM92.3229 91.0364V92.2807H87.973V91.0364H92.3229ZM89.1395 89.1284H90.6897V96.6617C90.6897 96.9624 90.7347 97.1888 90.8245 97.3409C90.9144 97.4895 91.0302 97.5915 91.1719 97.6468C91.3171 97.6987 91.4743 97.7246 91.6437 97.7246C91.7681 97.7246 91.877 97.7159 91.9703 97.6987C92.0637 97.6814 92.1362 97.6675 92.1881 97.6572L92.4681 98.9378C92.3782 98.9723 92.2503 99.0069 92.0844 99.0415C91.9185 99.0795 91.7111 99.1002 91.4622 99.1037C91.0544 99.1106 90.6742 99.038 90.3216 98.8859C89.9691 98.7339 89.6839 98.4988 89.4661 98.1808C89.2484 97.8628 89.1395 97.4636 89.1395 96.9832V89.1284ZM100.021 92.9806L98.6159 93.2295C98.5571 93.0497 98.4638 92.8786 98.3359 92.7162C98.2115 92.5537 98.0421 92.4207 97.8278 92.317C97.6135 92.2133 97.3457 92.1614 97.0242 92.1614C96.5852 92.1614 96.2189 92.2599 95.9251 92.457C95.6313 92.6505 95.4844 92.9011 95.4844 93.2087C95.4844 93.4749 95.5829 93.6892 95.7799 93.8516C95.9769 94.0141 96.2949 94.1472 96.7339 94.2509L97.9989 94.5412C98.7317 94.7106 99.2778 94.9715 99.6373 95.3241C99.9967 95.6766 100.176 96.1346 100.176 96.698C100.176 97.175 100.038 97.6001 99.7617 97.9734C99.4887 98.3433 99.1067 98.6336 98.6159 98.8445C98.1285 99.0553 97.5634 99.1607 96.9205 99.1607C96.0288 99.1607 95.3012 98.9706 94.7378 98.5904C94.1744 98.2067 93.8287 97.6624 93.7008 96.9572L95.1992 96.7291C95.2925 97.1197 95.4844 97.4152 95.7747 97.6157C96.065 97.8127 96.4435 97.9112 96.9101 97.9112C97.4182 97.9112 97.8244 97.8058 98.1285 97.595C98.4327 97.3807 98.5848 97.1197 98.5848 96.8121C98.5848 96.5632 98.4915 96.3541 98.3048 96.1847C98.1216 96.0154 97.8399 95.8875 97.4597 95.8011L96.1117 95.5055C95.3686 95.3362 94.819 95.0666 94.463 94.6967C94.1104 94.3269 93.9342 93.8585 93.9342 93.2917C93.9342 92.8216 94.0655 92.4103 94.3282 92.0577C94.5909 91.7052 94.9538 91.4304 95.417 91.2334C95.8801 91.0329 96.4107 90.9327 97.0087 90.9327C97.8693 90.9327 98.5468 91.1193 99.041 91.4926C99.5353 91.8625 99.8619 92.3585 100.021 92.9806Z" fill="white"/>
<path d="M264.322 157.036L261.434 165H259.775L256.882 157.036H258.547L260.563 163.165H260.646L262.658 157.036H264.322ZM265.923 165V157.036H267.473V165H265.923ZM266.706 155.808C266.436 155.808 266.205 155.718 266.011 155.538C265.821 155.355 265.726 155.137 265.726 154.885C265.726 154.629 265.821 154.411 266.011 154.231C266.205 154.048 266.436 153.957 266.706 153.957C266.976 153.957 267.205 154.048 267.396 154.231C267.589 154.411 267.686 154.629 267.686 154.885C267.686 155.137 267.589 155.355 267.396 155.538C267.205 155.718 266.976 155.808 266.706 155.808ZM271.253 154.382V165H269.703V154.382H271.253ZM275.033 154.382V165H273.483V154.382H275.033ZM279.58 165.176C279.075 165.176 278.619 165.083 278.211 164.896C277.803 164.706 277.48 164.431 277.242 164.072C277.007 163.712 276.889 163.272 276.889 162.75C276.889 162.301 276.975 161.931 277.148 161.64C277.321 161.35 277.554 161.12 277.848 160.951C278.142 160.781 278.47 160.654 278.833 160.567C279.196 160.481 279.566 160.415 279.943 160.37C280.42 160.315 280.807 160.27 281.104 160.235C281.401 160.197 281.617 160.137 281.752 160.054C281.887 159.971 281.954 159.836 281.954 159.649V159.613C281.954 159.16 281.827 158.81 281.571 158.561C281.318 158.312 280.942 158.187 280.441 158.187C279.919 158.187 279.507 158.303 279.207 158.535C278.909 158.763 278.704 159.017 278.59 159.297L277.133 158.965C277.306 158.481 277.558 158.091 277.89 157.793C278.225 157.493 278.61 157.275 279.046 157.14C279.481 157.002 279.939 156.933 280.42 156.933C280.738 156.933 281.075 156.971 281.431 157.047C281.79 157.119 282.126 157.254 282.437 157.451C282.751 157.648 283.009 157.93 283.209 158.296C283.41 158.659 283.51 159.131 283.51 159.712V165H281.996V163.911H281.934C281.833 164.112 281.683 164.309 281.483 164.502C281.282 164.696 281.025 164.857 280.71 164.984C280.396 165.112 280.019 165.176 279.58 165.176ZM279.917 163.932C280.345 163.932 280.712 163.847 281.016 163.678C281.324 163.509 281.557 163.287 281.716 163.014C281.878 162.738 281.96 162.442 281.96 162.128V161.101C281.904 161.156 281.797 161.208 281.638 161.257C281.483 161.302 281.305 161.341 281.104 161.376C280.904 161.407 280.708 161.436 280.518 161.464C280.328 161.488 280.169 161.509 280.041 161.526C279.741 161.564 279.466 161.628 279.217 161.718C278.972 161.808 278.775 161.938 278.626 162.107C278.481 162.273 278.408 162.494 278.408 162.771C278.408 163.154 278.55 163.445 278.833 163.642C279.117 163.835 279.478 163.932 279.917 163.932Z" fill="white"/>
<path d="M42.3006 219V208.382H43.9027V212.996H49.1962V208.382H50.8034V219H49.1962V214.37H43.9027V219H42.3006ZM56.5106 219.161C55.764 219.161 55.1124 218.99 54.556 218.647C53.9995 218.305 53.5674 217.827 53.2598 217.211C52.9522 216.596 52.7984 215.877 52.7984 215.054C52.7984 214.228 52.9522 213.506 53.2598 212.887C53.5674 212.269 53.9995 211.788 54.556 211.446C55.1124 211.104 55.764 210.933 56.5106 210.933C57.2572 210.933 57.9087 211.104 58.4652 211.446C59.0217 211.788 59.4537 212.269 59.7614 212.887C60.069 213.506 60.2228 214.228 60.2228 215.054C60.2228 215.877 60.069 216.596 59.7614 217.211C59.4537 217.827 59.0217 218.305 58.4652 218.647C57.9087 218.99 57.2572 219.161 56.5106 219.161ZM56.5158 217.859C56.9997 217.859 57.4006 217.731 57.7186 217.476C58.0366 217.22 58.2716 216.879 58.4237 216.454C58.5793 216.029 58.657 215.561 58.657 215.049C58.657 214.541 58.5793 214.075 58.4237 213.649C58.2716 213.221 58.0366 212.877 57.7186 212.618C57.4006 212.358 56.9997 212.229 56.5158 212.229C56.0284 212.229 55.624 212.358 55.3025 212.618C54.9846 212.877 54.7478 213.221 54.5922 213.649C54.4402 214.075 54.3641 214.541 54.3641 215.049C54.3641 215.561 54.4402 216.029 54.5922 216.454C54.7478 216.879 54.9846 217.22 55.3025 217.476C55.624 217.731 56.0284 217.859 56.5158 217.859ZM65.8146 211.036V212.281H61.4646V211.036H65.8146ZM62.6312 209.128H64.1814V216.662C64.1814 216.962 64.2263 217.189 64.3162 217.341C64.4061 217.49 64.5219 217.592 64.6636 217.647C64.8087 217.699 64.966 217.725 65.1354 217.725C65.2598 217.725 65.3687 217.716 65.462 217.699C65.5553 217.681 65.6279 217.668 65.6798 217.657L65.9597 218.938C65.8699 218.972 65.742 219.007 65.5761 219.041C65.4102 219.079 65.2028 219.1 64.9539 219.104C64.5461 219.111 64.1658 219.038 63.8133 218.886C63.4607 218.734 63.1756 218.499 62.9578 218.181C62.7401 217.863 62.6312 217.464 62.6312 216.983V209.128ZM71.0201 219.161C70.2355 219.161 69.5597 218.993 68.9929 218.658C68.4295 218.319 67.994 217.844 67.6864 217.232C67.3822 216.617 67.2301 215.896 67.2301 215.07C67.2301 214.254 67.3822 213.535 67.6864 212.913C67.994 212.291 68.4226 211.805 68.9722 211.456C69.5252 211.107 70.1715 210.933 70.9112 210.933C71.3606 210.933 71.7961 211.007 72.2177 211.156C72.6394 211.304 73.0179 211.538 73.3532 211.856C73.6885 212.174 73.9529 212.587 74.1464 213.095C74.34 213.599 74.4368 214.213 74.4368 214.935V215.485H68.1063V214.323H72.9177C72.9177 213.916 72.8347 213.554 72.6688 213.24C72.5029 212.922 72.2696 212.671 71.9689 212.488C71.6716 212.305 71.3225 212.213 70.9216 212.213C70.4861 212.213 70.1059 212.32 69.781 212.535C69.4595 212.746 69.2106 213.022 69.0344 213.364C68.8615 213.703 68.7751 214.071 68.7751 214.469V215.376C68.7751 215.908 68.8685 216.361 69.0551 216.734C69.2452 217.108 69.5096 217.393 69.8484 217.59C70.1871 217.783 70.5829 217.88 71.0356 217.88C71.3294 217.88 71.5973 217.839 71.8393 217.756C72.0812 217.669 72.2903 217.541 72.4666 217.372C72.6429 217.203 72.7777 216.994 72.871 216.745L74.3383 217.009C74.2208 217.441 74.0099 217.82 73.7057 218.145C73.405 218.466 73.0266 218.717 72.5703 218.896C72.1175 219.073 71.6008 219.161 71.0201 219.161ZM77.851 208.382V219H76.3008V208.382H77.851ZM86.0481 212.981L84.643 213.229C84.5843 213.05 84.491 212.879 84.3631 212.716C84.2386 212.554 84.0693 212.421 83.855 212.317C83.6407 212.213 83.3728 212.161 83.0513 212.161C82.6124 212.161 82.246 212.26 81.9522 212.457C81.6584 212.651 81.5115 212.901 81.5115 213.209C81.5115 213.475 81.61 213.689 81.807 213.852C82.004 214.014 82.322 214.147 82.761 214.251L84.0261 214.541C84.7588 214.711 85.3049 214.972 85.6644 215.324C86.0239 215.677 86.2036 216.135 86.2036 216.698C86.2036 217.175 86.0654 217.6 85.7888 217.973C85.5158 218.343 85.1339 218.634 84.643 218.844C84.1557 219.055 83.5906 219.161 82.9477 219.161C82.0559 219.161 81.3283 218.971 80.7649 218.59C80.2015 218.207 79.8559 217.662 79.728 216.957L81.2263 216.729C81.3197 217.12 81.5115 217.415 81.8018 217.616C82.0922 217.813 82.4707 217.911 82.9373 217.911C83.4454 217.911 83.8515 217.806 84.1557 217.595C84.4598 217.381 84.6119 217.12 84.6119 216.812C84.6119 216.563 84.5186 216.354 84.332 216.185C84.1488 216.015 83.8671 215.887 83.4869 215.801L82.1388 215.506C81.3957 215.336 80.8461 215.067 80.4901 214.697C80.1376 214.327 79.9613 213.859 79.9613 213.292C79.9613 212.822 80.0926 212.41 80.3553 212.058C80.618 211.705 80.9809 211.43 81.4441 211.233C81.9073 211.033 82.4378 210.933 83.0358 210.933C83.8964 210.933 84.5739 211.119 85.0682 211.493C85.5625 211.862 85.8891 212.358 86.0481 212.981Z" fill="white"/>
<path opacity="0.5" fill-rule="evenodd" clip-rule="evenodd" d="M181 154C181 162.284 174.284 169 166 169C157.716 169 151 162.284 151 154C151 145.716 157.716 139 166 139C174.284 139 181 145.716 181 154Z" fill="black"/>
<path fill-rule="evenodd" clip-rule="evenodd" d="M166 143.875C166.298 143.875 166.585 143.994 166.795 144.205C167.006 144.415 167.125 144.702 167.125 145V145.475C169.57 145.913 171.625 147.751 171.625 150.25C171.625 150.548 171.506 150.835 171.295 151.045C171.085 151.256 170.798 151.375 170.5 151.375C170.202 151.375 169.915 151.256 169.705 151.045C169.494 150.835 169.375 150.548 169.375 150.25C169.375 149.233 168.529 148.155 167.125 147.771V152.976C169.57 153.414 171.625 155.251 171.625 157.75C171.625 160.249 169.57 162.087 167.125 162.525V163C167.125 163.298 167.006 163.585 166.795 163.795C166.585 164.006 166.298 164.125 166 164.125C165.702 164.125 165.415 164.006 165.205 163.795C164.994 163.585 164.875 163.298 164.875 163V162.525C162.43 162.087 160.375 160.249 160.375 157.75C160.375 157.452 160.494 157.165 160.705 156.955C160.915 156.744 161.202 156.625 161.5 156.625C161.798 156.625 162.085 156.744 162.295 156.955C162.506 157.165 162.625 157.452 162.625 157.75C162.625 158.767 163.471 159.846 164.875 160.228V155.024C162.43 154.586 160.375 152.749 160.375 150.25C160.375 147.751 162.43 145.913 164.875 145.475V145C164.875 144.702 164.994 144.415 165.205 144.205C165.415 143.994 165.702 143.875 166 143.875ZM164.875 147.771C163.471 148.155 162.625 149.233 162.625 150.25C162.625 151.267 163.471 152.346 164.875 152.728V147.771ZM169.375 157.75C169.375 156.733 168.529 155.654 167.125 155.272V160.228C168.529 159.846 169.375 158.767 169.375 157.75Z" fill="#FAFAFA"/>
</g>
<defs>
<clipPath id="clip0_17_6">
<rect width="331" height="308" fill="white"/>
</clipPath>
</defs>
</svg>
