<svg width="331" height="308" viewBox="0 0 331 308" fill="none" xmlns="http://www.w3.org/2000/svg">
<rect width="331" height="308" rx="16" fill="#D9D9D9"/>
<path d="M44 151C44 137.193 55.1929 126 69 126H263C276.807 126 288 137.193 288 151C288 164.807 276.807 176 263 176H69C55.1929 176 44 164.807 44 151Z" fill="white"/>
<g style="mix-blend-mode:lighten">
<rect width="232" height="50" rx="25" transform="matrix(1 0 0 -1 50 160)" fill="#F0F0F0"/>
</g>
<g style="mix-blend-mode:lighten">
<rect width="219" height="50" rx="25" transform="matrix(1 0 0 -1 56 142)" fill="#E3E3E3"/>
</g>
<path d="M154 148.4C154 147.28 154 146.72 154.218 146.292C154.41 145.916 154.716 145.61 155.092 145.418C155.52 145.2 156.08 145.2 157.2 145.2H162.8C163.92 145.2 164.48 145.2 164.908 145.418C165.284 145.61 165.59 145.916 165.782 146.292C166 146.72 166 147.28 166 148.4V161.705C166 162.191 166 162.434 165.899 162.567C165.855 162.625 165.8 162.673 165.736 162.707C165.672 162.741 165.601 162.761 165.529 162.765C165.362 162.775 165.16 162.64 164.756 162.371L160 159.2L155.244 162.37C154.84 162.64 154.638 162.775 154.47 162.765C154.398 162.761 154.327 162.741 154.264 162.707C154.2 162.672 154.145 162.625 154.101 162.567C154 162.434 154 162.191 154 161.705V148.4Z" fill="black" stroke="black" stroke-width="1.5" stroke-linecap="round" stroke-linejoin="round"/>
</svg>
